<svg width="16" height="16" viewBox="0 0 16 16" fill="none" xmlns="http://www.w3.org/2000/svg">
<g clip-path="url(#clip0_13624_18619)">
<path fill-rule="evenodd" clip-rule="evenodd" d="M2.91429 7.00008L6.85363 3.06074C7.04889 2.86547 7.04889 2.54889 6.85363 2.35363L6.14652 1.64652C5.95126 1.45126 5.63468 1.45126 5.43942 1.64652L-0.560585 7.64652C-0.755847 7.84178 -0.755847 8.15837 -0.560585 8.35363L5.43942 14.3536C5.63468 14.5489 5.95126 14.5489 6.14652 14.3536L6.85363 13.6465C7.04889 13.4513 7.04889 13.1347 6.85363 12.9394L2.91429 9.00008L16.0001 9.00008C16.2762 9.00008 16.5001 8.77622 16.5001 8.50008L16.5001 7.50008C16.5001 7.22393 16.2762 7.00008 16.0001 7.00008L2.91429 7.00008Z" fill="#121922"/>
</g>
<defs>
<clipPath id="clip0_13624_18619">
<rect width="16" height="16" fill="white" transform="matrix(-1 0 0 1 16 0)"/>
</clipPath>
</defs>
</svg>
