<svg width="32" height="32" viewBox="0 0 32 32" fill="none" xmlns="http://www.w3.org/2000/svg">
<g clip-path="url(#clip0_6333_111390)">
<path d="M11.8531 8.29395H4.74123C3.43739 8.29395 2.38246 9.36073 2.38246 10.6646L2.37061 24.8883C2.37061 26.1922 3.43739 27.2589 4.74123 27.2589H23.7062C25.0101 27.2589 26.0768 26.1922 26.0768 24.8883V13.0352C26.0768 11.7314 25.0101 10.6646 23.7062 10.6646H14.2237L11.8531 8.29395Z" fill="#ADBFDF"/>
</g>
<g opacity="0.3" clip-path="url(#clip1_6333_111390)">
<path d="M15.483 4.66797H8.37111C7.06727 4.66797 6.01234 5.73475 6.01234 7.03859L6.00049 21.2623C6.00049 22.5662 7.06727 23.633 8.37111 23.633H27.3361C28.6399 23.633 29.7067 22.5662 29.7067 21.2623V9.40922C29.7067 8.10537 28.6399 7.03859 27.3361 7.03859H17.8536L15.483 4.66797Z" fill="#ADBFDF"/>
</g>
<defs>
<clipPath id="clip0_6333_111390">
<rect width="28.4475" height="28.4475" fill="white" transform="translate(0 3.55273)"/>
</clipPath>
<clipPath id="clip1_6333_111390">
<rect width="28.4475" height="28.4475" fill="white" transform="translate(3.55664)"/>
</clipPath>
</defs>
</svg>
