<svg width="24" height="24" viewBox="0 0 24 24" fill="none" xmlns="http://www.w3.org/2000/svg">
<path fill-rule="evenodd" clip-rule="evenodd" d="M12.0039 3C12.5562 3 13.0039 3.44772 13.0039 4V12.7546L16.3349 9.75671C16.7455 9.38725 17.3777 9.42053 17.7472 9.83104C18.1167 10.2415 18.0834 10.8738 17.6729 11.2433L12.6729 15.7433C12.2926 16.0856 11.7152 16.0856 11.3349 15.7433L6.33494 11.2433C5.92443 10.8738 5.89115 10.2415 6.26061 9.83104C6.63007 9.42053 7.26236 9.38725 7.67287 9.75671L11.0039 12.7546V4C11.0039 3.44772 11.4516 3 12.0039 3ZM4.00391 15.5C4.55619 15.5 5.00391 15.9477 5.00391 16.5V18C5.00391 18.5523 5.45162 19 6.00391 19H18.0039C18.5562 19 19.0039 18.5523 19.0039 18V16.5C19.0039 15.9477 19.4516 15.5 20.0039 15.5C20.5562 15.5 21.0039 15.9477 21.0039 16.5V18C21.0039 19.6569 19.6608 21 18.0039 21H6.00391C4.34705 21 3.00391 19.6569 3.00391 18V16.5C3.00391 15.9477 3.45162 15.5 4.00391 15.5Z" fill="#002CFB"/>
</svg>
