<svg width="16" height="16" viewBox="0 0 16 16" fill="none" xmlns="http://www.w3.org/2000/svg">
<path d="M9 0C9.55228 0 10 0.447715 10 1V2H13.5C13.7761 2 14 2.22386 14 2.5V3.29297C14 3.56911 13.7761 3.79297 13.5 3.79297H13V11C13 12.6569 11.6569 14 10 14H6C4.34315 14 3 12.6569 3 11V3.79297H2.5C2.22386 3.79297 2 3.56911 2 3.29297V2.5C2 2.22386 2.22386 2 2.5 2H6V1C6 0.447715 6.44772 0 7 0H9ZM4.59961 11C4.59961 11.7732 5.2268 12.4004 6 12.4004H10C10.7732 12.4004 11.4004 11.7732 11.4004 11V3.60938H4.59961V11ZM7 5.5C7.27614 5.5 7.5 5.72386 7.5 6V10.5C7.5 10.7761 7.27614 11 7 11H6.5C6.22386 11 6 10.7761 6 10.5V6C6 5.72386 6.22386 5.5 6.5 5.5H7ZM9.5 5.5C9.77614 5.5 10 5.72386 10 6V10.5C10 10.7761 9.77614 11 9.5 11H9C8.72386 11 8.5 10.7761 8.5 10.5V6C8.5 5.72386 8.72386 5.5 9 5.5H9.5ZM7.59961 2H8.40039V1.59961H7.59961V2Z" fill="#E10D0D"/>
</svg>
