<svg width="17" height="16" viewBox="0 0 17 16" fill="none" xmlns="http://www.w3.org/2000/svg">
<path d="M8.70173 9.01684C8.28855 8.84524 7.97278 8.52829 7.97278 8.52829C7.87919 8.43435 7.75211 8.38143 7.6195 8.38118L7.61857 8.38118C7.61087 8.38118 7.60317 8.38136 7.59548 8.38171C7.47131 8.38745 7.35373 8.43924 7.26568 8.52697C7.1715 8.62079 7.11857 8.74825 7.11857 8.88118C7.11857 8.8895 7.11877 8.89781 7.11919 8.90612C7.12536 9.02963 7.17707 9.14647 7.26435 9.23407C7.72085 9.69228 8.31819 9.94036 8.31819 9.94036C8.91552 10.1884 9.56232 10.1884 9.56232 10.1884C10.2091 10.1884 10.8064 9.94036 10.8064 9.94036C11.4038 9.69228 11.8603 9.23407 11.8603 9.23407L13.6277 7.47286C13.6334 7.46721 13.639 7.46141 13.6444 7.45549C14.5233 6.49112 14.4931 5.18663 14.4931 5.18663C14.4629 3.88214 13.5403 2.95948 13.5403 2.95948C12.6176 2.03682 11.3131 2.00662 11.3131 2.00662C10.0086 1.97642 9.04425 2.85539 9.04425 2.85539C9.03855 2.86059 9.03297 2.86592 9.02751 2.87138L7.79001 4.10888C7.69625 4.20264 7.64357 4.32982 7.64357 4.46243C7.64357 4.47044 7.64376 4.47845 7.64415 4.48645C7.65012 4.61061 7.70212 4.72809 7.79001 4.81598C7.88378 4.90975 8.01096 4.96243 8.14357 4.96243C8.27618 4.96243 8.40335 4.90975 8.49712 4.81598L9.72608 3.58703C10.3916 2.98555 11.29 3.00635 11.29 3.00635C12.1938 3.02728 12.8332 3.66659 12.8332 3.66659C13.4725 4.3059 13.4934 5.20978 13.4934 5.20978C13.5142 6.10791 12.913 6.77336 12.913 6.77336L11.1519 8.52829C10.8361 8.84524 10.4229 9.01684 10.4229 9.01684C10.0097 9.18844 9.56232 9.18844 9.56232 9.18844C9.11492 9.18844 8.70173 9.01684 8.70173 9.01684Z" fill="#002CFB"/>
<path d="M8.29787 6.983C8.71105 7.1546 9.02682 7.47155 9.02682 7.47155C9.12064 7.56573 9.2481 7.61866 9.38103 7.61866C9.38935 7.61866 9.39766 7.61845 9.40597 7.61804C9.52948 7.61187 9.64632 7.56016 9.73392 7.47288C9.82787 7.37928 9.88078 7.25221 9.88103 7.1196L9.88103 7.11866C9.88103 7.11096 9.88086 7.10327 9.8805 7.09558C9.87476 6.97141 9.82298 6.85383 9.73525 6.76577C9.27875 6.30756 8.68141 6.05948 8.68141 6.05948C8.08408 5.8114 7.43728 5.8114 7.43728 5.8114C6.79048 5.8114 6.19315 6.05948 6.19315 6.05948C5.59582 6.30756 5.13932 6.76577 5.13932 6.76577L3.37186 8.52698C3.36618 8.53264 3.36064 8.53843 3.35525 8.54435C2.47627 9.50872 2.50647 10.8132 2.50647 10.8132C2.53667 12.1177 3.45933 13.0404 3.45933 13.0404C4.38199 13.963 5.68648 13.9932 5.68648 13.9932C6.99097 14.0234 7.95535 13.1444 7.95535 13.1444C7.96105 13.1393 7.96663 13.1339 7.97209 13.1285L9.20933 11.8912C9.3031 11.7975 9.35603 11.67 9.35603 11.5374C9.35603 11.4048 9.30335 11.2776 9.20959 11.1839C9.11582 11.0901 8.98864 11.0374 8.85603 11.0374C8.72342 11.0374 8.59625 11.0901 8.50248 11.1839L7.27353 12.4128C6.60797 13.0143 5.70963 12.9935 5.70963 12.9935C4.80575 12.9726 4.16644 12.3333 4.16644 12.3333C3.52713 11.6939 3.5062 10.7901 3.5062 10.7901C3.48541 9.89194 4.08659 9.22649 4.08659 9.22649L5.84775 7.47155C6.16351 7.1546 6.5767 6.983 6.5767 6.983C6.98988 6.8114 7.43728 6.8114 7.43728 6.8114C7.88468 6.8114 8.29787 6.983 8.29787 6.983Z" fill="#002CFB"/>
</svg>
