<svg width="16" height="16" viewBox="0 0 16 16" fill="none" xmlns="http://www.w3.org/2000/svg">
<path d="M6.49994 4.49939V2.99939C6.49994 2.72325 6.27608 2.49939 5.99994 2.49939C5.7238 2.49939 5.49994 2.72325 5.49994 2.99939V4.49939C5.49994 4.77553 5.7238 4.99939 5.99994 4.99939C6.27608 4.99939 6.49994 4.77553 6.49994 4.49939Z" fill="#002cfb"/>
<path d="M10.4999 12.9994V11.4994C10.4999 11.2232 10.2761 10.9994 9.99994 10.9994C9.7238 10.9994 9.49994 11.2232 9.49994 11.4994V12.9994C9.49994 13.2755 9.7238 13.4994 9.99994 13.4994C10.2761 13.4994 10.4999 13.2755 10.4999 12.9994Z" fill="#002cfb"/>
<path d="M4.49994 5.49939H2.99994C2.7238 5.49939 2.49994 5.72325 2.49994 5.99939C2.49994 6.27553 2.7238 6.49939 2.99994 6.49939H4.49994C4.77608 6.49939 4.99994 6.27553 4.99994 5.99939C4.99994 5.72325 4.77608 5.49939 4.49994 5.49939Z" fill="#002cfb"/>
<path d="M12.9999 9.49939H11.4999C11.2238 9.49939 10.9999 9.72325 10.9999 9.99939C10.9999 10.2755 11.2238 10.4994 11.4999 10.4994H12.9999C13.2761 10.4994 13.4999 10.2755 13.4999 9.99939C13.4999 9.72325 13.2761 9.49939 12.9999 9.49939Z" fill="#002cfb"/>
<path d="M4.79098 8.37797L4.79524 8.37365C4.88623 8.28028 4.93743 8.15478 4.93743 8.02441C4.93743 7.89181 4.88475 7.76463 4.79098 7.67086L4.78666 7.6666C4.69329 7.57561 4.56779 7.52441 4.43743 7.52441L4.43466 7.52442C4.30301 7.52515 4.17696 7.57777 4.08387 7.67086L3.37762 8.37711C2.49854 9.2562 2.49854 10.4994 2.49854 10.4994C2.49854 11.0964 2.727 11.648 2.727 11.648C2.95547 12.1996 3.37762 12.6217 3.37762 12.6217C3.79978 13.0439 4.35134 13.2723 4.35134 13.2723C4.90291 13.5008 5.49993 13.5008 5.49993 13.5008C6.74314 13.5008 7.62223 12.6217 7.62223 12.6217L8.32848 11.9155C8.42225 11.8217 8.47493 11.6945 8.47493 11.5619C8.47493 11.4293 8.42225 11.3021 8.32848 11.2084C8.23471 11.1146 8.10753 11.0619 7.97492 11.0619C7.84232 11.0619 7.71514 11.1146 7.62137 11.2084L6.91512 11.9146C6.32893 12.5008 5.49993 12.5008 5.49993 12.5008C5.10182 12.5008 4.73403 12.3485 4.73403 12.3485C4.36623 12.1961 4.08473 11.9146 4.08473 11.9146C3.80323 11.6331 3.65088 11.2653 3.65088 11.2653C3.49854 10.8975 3.49854 10.4994 3.49854 10.4994C3.49854 9.67041 4.08473 9.08422 4.08473 9.08422L4.79098 8.37797Z" fill="#002cfb"/>
<path d="M7.67141 4.08338C7.57764 4.17715 7.52496 4.30433 7.52496 4.43694C7.52496 4.44495 7.52516 4.45295 7.52554 4.46096C7.53151 4.58511 7.58352 4.7026 7.67141 4.79049C7.76518 4.88426 7.89235 4.93694 8.02496 4.93694C8.15757 4.93694 8.28475 4.88426 8.37852 4.79049L9.08477 4.08424C9.67096 3.49805 10.5 3.49805 10.5 3.49805C11.329 3.49805 11.9152 4.08424 11.9152 4.08424C12.5014 4.67043 12.5014 5.49944 12.5014 5.49944C12.5014 6.32844 11.9152 6.91463 11.9152 6.91463L11.2089 7.62088C11.1151 7.71465 11.0625 7.84183 11.0625 7.97444C11.0625 7.98306 11.0627 7.99169 11.0631 8.00031C11.0695 8.1238 11.1215 8.24055 11.2089 8.32799C11.3027 8.42176 11.4299 8.47444 11.5625 8.47444C11.5705 8.47444 11.5785 8.47424 11.5865 8.47386C11.7106 8.46789 11.8281 8.41588 11.916 8.32799L12.6223 7.62174C13.5014 6.74265 13.5014 5.49944 13.5014 5.49944C13.5014 4.25622 12.6223 3.37713 12.6223 3.37713C11.7432 2.49805 10.5 2.49805 10.5 2.49805C9.25675 2.49805 8.37766 3.37713 8.37766 3.37713L7.67141 4.08338Z" fill="#002cfb"/>
</svg>
