<svg width="28" height="28" viewBox="0 0 28 28" fill="none" xmlns="http://www.w3.org/2000/svg">
<rect width="28" height="28" rx="4" fill="#F1F4F9"/>
<g clip-path="url(#clip0_3733_230973)">
<path d="M13.9941 8.68555C16.9338 8.68562 19.3145 11.0672 19.3145 14C19.3145 16.9328 16.9338 19.3144 13.9941 19.3145C11.0617 19.3145 8.68555 16.9342 8.68555 14C8.68555 11.0658 11.0617 8.68555 13.9941 8.68555Z" stroke="#71869D" stroke-width="1.37143"/>
<path fill-rule="evenodd" clip-rule="evenodd" d="M13.3579 12.0071C13.3579 11.8651 13.473 11.75 13.6151 11.75H14.0651C14.2071 11.75 14.3222 11.8651 14.3222 12.0071V13.6537C14.3222 13.7301 14.3561 13.8024 14.4147 13.8513L15.8797 15.0721C15.9888 15.163 16.0036 15.3252 15.9127 15.4343L15.6246 15.78C15.5337 15.8891 15.3715 15.9038 15.2624 15.8129L13.6663 14.4828C13.4709 14.32 13.3579 14.0787 13.3579 13.8244V12.0071Z" fill="#71869D"/>
</g>
<defs>
<clipPath id="clip0_3733_230973">
<rect width="12" height="12" fill="white" transform="translate(8 8)"/>
</clipPath>
</defs>
</svg>
