<svg xmlns="http://www.w3.org/2000/svg" width="12" height="12" viewBox="0 0 12 12" fill="none">
<path d="M8.4 4.2C8.73137 4.2 9 4.46863 9 4.8C9 5.13137 8.73137 5.4 8.4 5.4H3.6C3.26863 5.4 3 5.13137 3 4.8C3 4.46863 3.26863 4.2 3.6 4.2H8.4Z" fill="#121922"/>
<path fill-rule="evenodd" clip-rule="evenodd" d="M9 1.2C9 0.537258 8.46274 0 7.8 0H4.2C3.53726 0 3 0.537258 3 1.2V2.4H1.8C0.805887 2.4 0 3.20589 0 4.2V8.4C0 9.39411 0.805887 10.2 1.8 10.2H2.4V11.4C2.4 11.7314 2.66863 12 3 12H9C9.33137 12 9.6 11.7314 9.6 11.4V10.2H10.2C11.1941 10.2 12 9.39411 12 8.4V4.2C12 3.20589 11.1941 2.4 10.2 2.4H9V1.2ZM4.2 1.2V2.4H7.8V1.2H4.2ZM2.4 9H1.8C1.46863 9 1.2 8.73137 1.2 8.4V4.2C1.2 3.86863 1.46863 3.6 1.8 3.6H10.2C10.5314 3.6 10.8 3.86863 10.8 4.2V8.4C10.8 8.73137 10.5314 9 10.2 9H9.6V7.8C9.93137 7.8 10.2 7.53137 10.2 7.2C10.2 6.86863 9.93137 6.6 9.6 6.6H2.4C2.06863 6.6 1.8 6.86863 1.8 7.2C1.8 7.53137 2.06863 7.8 2.4 7.8V9ZM8.4 7.8H3.6V10.8H8.4V7.8Z" fill="#121922"/>
</svg>