<svg width="16" height="16" viewBox="0 0 16 16" fill="none" xmlns="http://www.w3.org/2000/svg">
<path fill-rule="evenodd" clip-rule="evenodd" d="M3.99995 3.79995C3.33721 3.79995 2.79995 4.33721 2.79995 4.99995V11C2.79995 11.6627 3.33721 12.2 3.99995 12.2H11.6428C12.3056 12.2 12.8428 11.6627 12.8428 11V10.4666H10.2142C8.84703 10.4666 7.69995 9.38335 7.69995 7.99995C7.69995 6.61655 8.84703 5.53328 10.2142 5.53328H12.8428V4.99995C12.8428 4.33721 12.3056 3.79995 11.6428 3.79995H3.99995ZM14.4428 5.53329V4.99995C14.4428 3.45355 13.1892 2.19995 11.6428 2.19995H3.99995C2.45355 2.19995 1.19995 3.45355 1.19995 4.99995V11C1.19995 12.5463 2.45356 13.8 3.99995 13.8H11.6428C13.1892 13.8 14.4428 12.5463 14.4428 11V10.4666C14.8951 10.4654 15.3 10.1029 15.3 9.60886V6.39104C15.3 5.89704 14.8951 5.53449 14.4428 5.53329ZM13.7 7.13328H10.2142C9.6879 7.13328 9.29995 7.5424 9.29995 7.99995C9.29995 8.4575 9.6879 8.86662 10.2142 8.86662H13.7V7.13328Z" fill="#ADBFDF"/>
</svg>
