<svg width="16" height="16" viewBox="0 0 16 16" fill="none" xmlns="http://www.w3.org/2000/svg">
<path d="M2.27272 9.12125L2.59091 9.1658L5.37788 6.56065C5.26333 6.14701 5.37152 5.6761 5.70879 5.34519C6.20515 4.84247 7.00697 4.84247 7.50333 5.34519C7.84061 5.6761 7.94879 6.14701 7.83424 6.56065L9.4697 8.1961L9.78788 8.15156C9.90242 8.15156 10.0106 8.15156 10.1061 8.1961L12.3779 5.92428C12.3333 5.82883 12.3333 5.72065 12.3333 5.6061C12.3333 5.26855 12.4674 4.94483 12.7061 4.70615C12.9448 4.46746 13.2685 4.33337 13.6061 4.33337C13.9436 4.33337 14.2673 4.46746 14.506 4.70615C14.7447 4.94483 14.8788 5.26855 14.8788 5.6061C14.8788 5.94365 14.7447 6.26737 14.506 6.50606C14.2673 6.74474 13.9436 6.87883 13.6061 6.87883C13.4915 6.87883 13.3833 6.87883 13.2879 6.83428L11.0161 9.1061C11.0606 9.20156 11.0606 9.30974 11.0606 9.42428C11.0606 9.76183 10.9265 10.0856 10.6878 10.3242C10.4492 10.5629 10.1254 10.697 9.78788 10.697C9.45033 10.697 9.12661 10.5629 8.88793 10.3242C8.64924 10.0856 8.51515 9.76183 8.51515 9.42428L8.5597 9.1061L6.92424 7.47065C6.72061 7.51519 6.49152 7.51519 6.28788 7.47065L3.50091 10.0758L3.54545 10.394C3.54545 10.7315 3.41136 11.0553 3.17268 11.2939C2.934 11.5326 2.61027 11.6667 2.27272 11.6667C1.93518 11.6667 1.61145 11.5326 1.37277 11.2939C1.13409 11.0553 0.999996 10.7315 0.999996 10.394C0.999996 10.0564 1.13409 9.73271 1.37277 9.49403C1.61145 9.25534 1.93518 9.12125 2.27272 9.12125Z" fill="#ADBFDF"/>
</svg>
